<mxfile host="app.diagrams.net" modified="2022-05-24T04:38:30.009Z" agent="5.0 (Macintosh; Intel Mac OS X 10_15_7) AppleWebKit/537.36 (KHTML, like Gecko) Chrome/101.0.4951.64 Safari/537.36" etag="NzTctd-p9nRcoeND_wKV" version="17.5.0" type="github">
  <diagram id="R2lEEEUBdFMjLlhIrx00" name="Page-1">
    <mxGraphModel dx="1122" dy="722" grid="1" gridSize="10" guides="1" tooltips="1" connect="1" arrows="1" fold="1" page="1" pageScale="1" pageWidth="850" pageHeight="1100" math="0" shadow="0" extFonts="Permanent Marker^https://fonts.googleapis.com/css?family=Permanent+Marker">
      <root>
        <mxCell id="0" />
        <mxCell id="1" parent="0" />
        <mxCell id="yIu9YrGnw37LoQ0UbB89-1" value="Students" style="rounded=1;arcSize=10;whiteSpace=wrap;html=1;align=center;" vertex="1" parent="1">
          <mxGeometry x="160" y="280" width="80" height="40" as="geometry" />
        </mxCell>
        <mxCell id="yIu9YrGnw37LoQ0UbB89-4" value="Courses" style="shape=rhombus;perimeter=rhombusPerimeter;whiteSpace=wrap;html=1;align=center;" vertex="1" parent="1">
          <mxGeometry x="320" y="280" width="80" height="40" as="geometry" />
        </mxCell>
        <mxCell id="yIu9YrGnw37LoQ0UbB89-15" value="Student ID" style="ellipse;whiteSpace=wrap;html=1;align=center;fontStyle=4;" vertex="1" parent="1">
          <mxGeometry x="40" y="250" width="80" height="40" as="geometry" />
        </mxCell>
        <mxCell id="yIu9YrGnw37LoQ0UbB89-16" value="name" style="ellipse;whiteSpace=wrap;html=1;align=center;" vertex="1" parent="1">
          <mxGeometry x="40" y="310" width="80" height="40" as="geometry" />
        </mxCell>
        <mxCell id="yIu9YrGnw37LoQ0UbB89-19" value="" style="endArrow=none;html=1;rounded=0;exitX=1;exitY=1;exitDx=0;exitDy=0;entryX=0;entryY=0.5;entryDx=0;entryDy=0;" edge="1" parent="1" source="yIu9YrGnw37LoQ0UbB89-15" target="yIu9YrGnw37LoQ0UbB89-1">
          <mxGeometry width="50" height="50" relative="1" as="geometry">
            <mxPoint x="300" y="380" as="sourcePoint" />
            <mxPoint x="350" y="330" as="targetPoint" />
          </mxGeometry>
        </mxCell>
        <mxCell id="yIu9YrGnw37LoQ0UbB89-20" value="" style="endArrow=none;html=1;rounded=0;exitX=1;exitY=0;exitDx=0;exitDy=0;entryX=0;entryY=0.5;entryDx=0;entryDy=0;" edge="1" parent="1" source="yIu9YrGnw37LoQ0UbB89-16" target="yIu9YrGnw37LoQ0UbB89-1">
          <mxGeometry width="50" height="50" relative="1" as="geometry">
            <mxPoint x="112.4264068711908" y="264.14213562373016" as="sourcePoint" />
            <mxPoint x="170.0000000000001" y="310" as="targetPoint" />
          </mxGeometry>
        </mxCell>
        <mxCell id="yIu9YrGnw37LoQ0UbB89-22" value="name" style="ellipse;whiteSpace=wrap;html=1;align=center;" vertex="1" parent="1">
          <mxGeometry x="430" y="360" width="80" height="40" as="geometry" />
        </mxCell>
        <mxCell id="yIu9YrGnw37LoQ0UbB89-24" value="Subject ID" style="ellipse;whiteSpace=wrap;html=1;align=center;fontStyle=4;" vertex="1" parent="1">
          <mxGeometry x="330" y="360" width="80" height="40" as="geometry" />
        </mxCell>
        <mxCell id="yIu9YrGnw37LoQ0UbB89-29" value="&lt;span style=&quot;border-bottom: 1px dotted&quot;&gt;Student ID&lt;/span&gt;" style="ellipse;whiteSpace=wrap;html=1;align=center;" vertex="1" parent="1">
          <mxGeometry x="170" y="160" width="80" height="40" as="geometry" />
        </mxCell>
        <mxCell id="yIu9YrGnw37LoQ0UbB89-30" value="&lt;span style=&quot;border-bottom: 1px dotted&quot;&gt;Subject ID&lt;/span&gt;" style="ellipse;whiteSpace=wrap;html=1;align=center;" vertex="1" parent="1">
          <mxGeometry x="270" y="160" width="80" height="40" as="geometry" />
        </mxCell>
        <mxCell id="yIu9YrGnw37LoQ0UbB89-31" value="grade" style="ellipse;whiteSpace=wrap;html=1;align=center;" vertex="1" parent="1">
          <mxGeometry x="370" y="160" width="80" height="40" as="geometry" />
        </mxCell>
        <mxCell id="yIu9YrGnw37LoQ0UbB89-32" value="time" style="ellipse;whiteSpace=wrap;html=1;align=center;" vertex="1" parent="1">
          <mxGeometry x="530" y="360" width="80" height="40" as="geometry" />
        </mxCell>
        <mxCell id="yIu9YrGnw37LoQ0UbB89-33" value="location" style="ellipse;whiteSpace=wrap;html=1;align=center;" vertex="1" parent="1">
          <mxGeometry x="470" y="160" width="80" height="40" as="geometry" />
        </mxCell>
        <mxCell id="yIu9YrGnw37LoQ0UbB89-34" value="" style="endArrow=none;html=1;rounded=0;exitX=1;exitY=1;exitDx=0;exitDy=0;entryX=0.5;entryY=0;entryDx=0;entryDy=0;" edge="1" parent="1" source="yIu9YrGnw37LoQ0UbB89-29" target="yIu9YrGnw37LoQ0UbB89-4">
          <mxGeometry width="50" height="50" relative="1" as="geometry">
            <mxPoint x="118.2842712474619" y="264.14213562373084" as="sourcePoint" />
            <mxPoint x="170.0000000000001" y="310" as="targetPoint" />
          </mxGeometry>
        </mxCell>
        <mxCell id="yIu9YrGnw37LoQ0UbB89-35" value="" style="endArrow=none;html=1;rounded=0;exitX=0.5;exitY=1;exitDx=0;exitDy=0;entryX=0.5;entryY=0;entryDx=0;entryDy=0;" edge="1" parent="1" source="yIu9YrGnw37LoQ0UbB89-30" target="yIu9YrGnw37LoQ0UbB89-4">
          <mxGeometry width="50" height="50" relative="1" as="geometry">
            <mxPoint x="198.28427124745895" y="204.1421356237296" as="sourcePoint" />
            <mxPoint x="370" y="290" as="targetPoint" />
          </mxGeometry>
        </mxCell>
        <mxCell id="yIu9YrGnw37LoQ0UbB89-36" value="" style="endArrow=none;html=1;rounded=0;exitX=0.5;exitY=1;exitDx=0;exitDy=0;entryX=0.5;entryY=0;entryDx=0;entryDy=0;" edge="1" parent="1" source="yIu9YrGnw37LoQ0UbB89-31" target="yIu9YrGnw37LoQ0UbB89-4">
          <mxGeometry width="50" height="50" relative="1" as="geometry">
            <mxPoint x="270" y="210" as="sourcePoint" />
            <mxPoint x="370" y="290" as="targetPoint" />
          </mxGeometry>
        </mxCell>
        <mxCell id="yIu9YrGnw37LoQ0UbB89-38" value="" style="endArrow=none;html=1;rounded=0;exitX=0;exitY=1;exitDx=0;exitDy=0;entryX=0.5;entryY=0;entryDx=0;entryDy=0;" edge="1" parent="1" source="yIu9YrGnw37LoQ0UbB89-33" target="yIu9YrGnw37LoQ0UbB89-4">
          <mxGeometry width="50" height="50" relative="1" as="geometry">
            <mxPoint x="470" y="210" as="sourcePoint" />
            <mxPoint x="370" y="290" as="targetPoint" />
          </mxGeometry>
        </mxCell>
        <mxCell id="yIu9YrGnw37LoQ0UbB89-39" value="Departments" style="rounded=1;arcSize=10;whiteSpace=wrap;html=1;align=center;" vertex="1" parent="1">
          <mxGeometry x="480" y="520" width="80" height="40" as="geometry" />
        </mxCell>
        <mxCell id="yIu9YrGnw37LoQ0UbB89-40" value="Students" style="rounded=1;arcSize=10;whiteSpace=wrap;html=1;align=center;" vertex="1" parent="1">
          <mxGeometry x="160" y="520" width="80" height="40" as="geometry" />
        </mxCell>
        <mxCell id="yIu9YrGnw37LoQ0UbB89-41" value="Major" style="shape=rhombus;perimeter=rhombusPerimeter;whiteSpace=wrap;html=1;align=center;" vertex="1" parent="1">
          <mxGeometry x="320" y="520" width="80" height="40" as="geometry" />
        </mxCell>
        <mxCell id="yIu9YrGnw37LoQ0UbB89-43" value="Professors" style="rounded=1;arcSize=10;whiteSpace=wrap;html=1;align=center;" vertex="1" parent="1">
          <mxGeometry x="640" y="280" width="80" height="40" as="geometry" />
        </mxCell>
        <mxCell id="yIu9YrGnw37LoQ0UbB89-44" value="Professor ID" style="ellipse;whiteSpace=wrap;html=1;align=center;fontStyle=4;" vertex="1" parent="1">
          <mxGeometry x="760" y="220" width="80" height="40" as="geometry" />
        </mxCell>
        <mxCell id="yIu9YrGnw37LoQ0UbB89-45" value="name" style="ellipse;whiteSpace=wrap;html=1;align=center;" vertex="1" parent="1">
          <mxGeometry x="760" y="280" width="80" height="40" as="geometry" />
        </mxCell>
        <mxCell id="yIu9YrGnw37LoQ0UbB89-46" value="&lt;span style=&quot;border-bottom: 1px dotted&quot;&gt;Department ID&lt;/span&gt;" style="ellipse;whiteSpace=wrap;html=1;align=center;" vertex="1" parent="1">
          <mxGeometry x="760" y="340" width="80" height="40" as="geometry" />
        </mxCell>
        <mxCell id="yIu9YrGnw37LoQ0UbB89-55" value="" style="edgeStyle=entityRelationEdgeStyle;fontSize=12;html=1;endArrow=ERzeroToMany;startArrow=ERzeroToOne;rounded=0;entryX=0;entryY=0.5;entryDx=0;entryDy=0;exitX=1;exitY=0.5;exitDx=0;exitDy=0;" edge="1" parent="1" source="yIu9YrGnw37LoQ0UbB89-1" target="yIu9YrGnw37LoQ0UbB89-4">
          <mxGeometry width="100" height="100" relative="1" as="geometry">
            <mxPoint x="200" y="450" as="sourcePoint" />
            <mxPoint x="300" y="350" as="targetPoint" />
          </mxGeometry>
        </mxCell>
        <mxCell id="yIu9YrGnw37LoQ0UbB89-58" value="" style="endArrow=none;html=1;rounded=0;exitX=0;exitY=1;exitDx=0;exitDy=0;entryX=1;entryY=0.5;entryDx=0;entryDy=0;" edge="1" parent="1" source="yIu9YrGnw37LoQ0UbB89-44" target="yIu9YrGnw37LoQ0UbB89-43">
          <mxGeometry width="50" height="50" relative="1" as="geometry">
            <mxPoint x="541.7157287525381" y="204.14213562373106" as="sourcePoint" />
            <mxPoint x="370" y="290" as="targetPoint" />
          </mxGeometry>
        </mxCell>
        <mxCell id="yIu9YrGnw37LoQ0UbB89-59" value="" style="endArrow=none;html=1;rounded=0;exitX=0;exitY=0.5;exitDx=0;exitDy=0;entryX=1;entryY=0.5;entryDx=0;entryDy=0;" edge="1" parent="1" source="yIu9YrGnw37LoQ0UbB89-45" target="yIu9YrGnw37LoQ0UbB89-43">
          <mxGeometry width="50" height="50" relative="1" as="geometry">
            <mxPoint x="781.7157287525383" y="264.14213562373084" as="sourcePoint" />
            <mxPoint x="730" y="310" as="targetPoint" />
          </mxGeometry>
        </mxCell>
        <mxCell id="yIu9YrGnw37LoQ0UbB89-60" value="" style="endArrow=none;html=1;rounded=0;exitX=0;exitY=0;exitDx=0;exitDy=0;entryX=1;entryY=0.5;entryDx=0;entryDy=0;" edge="1" parent="1" source="yIu9YrGnw37LoQ0UbB89-46" target="yIu9YrGnw37LoQ0UbB89-43">
          <mxGeometry width="50" height="50" relative="1" as="geometry">
            <mxPoint x="770" y="310" as="sourcePoint" />
            <mxPoint x="730" y="310" as="targetPoint" />
          </mxGeometry>
        </mxCell>
        <mxCell id="yIu9YrGnw37LoQ0UbB89-64" value="&lt;span style=&quot;border-bottom: 1px dotted&quot;&gt;&lt;span&gt;Professor&lt;/span&gt;&amp;nbsp;ID&lt;/span&gt;" style="ellipse;whiteSpace=wrap;html=1;align=center;" vertex="1" parent="1">
          <mxGeometry x="630" y="360" width="80" height="40" as="geometry" />
        </mxCell>
        <mxCell id="yIu9YrGnw37LoQ0UbB89-65" value="" style="endArrow=none;html=1;rounded=0;entryX=0.5;entryY=1;entryDx=0;entryDy=0;exitX=1;exitY=0;exitDx=0;exitDy=0;" edge="1" parent="1" source="yIu9YrGnw37LoQ0UbB89-24" target="yIu9YrGnw37LoQ0UbB89-70">
          <mxGeometry width="50" height="50" relative="1" as="geometry">
            <mxPoint x="540" y="500" as="sourcePoint" />
            <mxPoint x="520" y="320" as="targetPoint" />
          </mxGeometry>
        </mxCell>
        <mxCell id="yIu9YrGnw37LoQ0UbB89-66" value="" style="endArrow=none;html=1;rounded=0;entryX=0.5;entryY=1;entryDx=0;entryDy=0;exitX=0.5;exitY=0;exitDx=0;exitDy=0;" edge="1" parent="1" source="yIu9YrGnw37LoQ0UbB89-22" target="yIu9YrGnw37LoQ0UbB89-70">
          <mxGeometry width="50" height="50" relative="1" as="geometry">
            <mxPoint x="463.2842712474619" y="375.85786437626916" as="sourcePoint" />
            <mxPoint x="520" y="320" as="targetPoint" />
          </mxGeometry>
        </mxCell>
        <mxCell id="yIu9YrGnw37LoQ0UbB89-67" value="" style="endArrow=none;html=1;rounded=0;entryX=0.5;entryY=1;entryDx=0;entryDy=0;exitX=0;exitY=0;exitDx=0;exitDy=0;" edge="1" parent="1" source="yIu9YrGnw37LoQ0UbB89-64" target="yIu9YrGnw37LoQ0UbB89-70">
          <mxGeometry width="50" height="50" relative="1" as="geometry">
            <mxPoint x="620" y="350" as="sourcePoint" />
            <mxPoint x="520" y="320" as="targetPoint" />
          </mxGeometry>
        </mxCell>
        <mxCell id="yIu9YrGnw37LoQ0UbB89-68" value="" style="edgeStyle=entityRelationEdgeStyle;fontSize=12;html=1;endArrow=ERzeroToMany;startArrow=ERzeroToOne;rounded=0;exitX=0;exitY=0.5;exitDx=0;exitDy=0;entryX=1;entryY=0.5;entryDx=0;entryDy=0;" edge="1" parent="1" source="yIu9YrGnw37LoQ0UbB89-43" target="yIu9YrGnw37LoQ0UbB89-70">
          <mxGeometry width="100" height="100" relative="1" as="geometry">
            <mxPoint x="510" y="520" as="sourcePoint" />
            <mxPoint x="560" y="300" as="targetPoint" />
          </mxGeometry>
        </mxCell>
        <mxCell id="yIu9YrGnw37LoQ0UbB89-69" value="" style="edgeStyle=entityRelationEdgeStyle;fontSize=12;html=1;endArrow=ERoneToMany;startArrow=ERmandOne;rounded=0;entryX=1;entryY=0.5;entryDx=0;entryDy=0;exitX=0;exitY=0.5;exitDx=0;exitDy=0;" edge="1" parent="1" source="yIu9YrGnw37LoQ0UbB89-70" target="yIu9YrGnw37LoQ0UbB89-4">
          <mxGeometry width="100" height="100" relative="1" as="geometry">
            <mxPoint x="480" y="300" as="sourcePoint" />
            <mxPoint x="610" y="420" as="targetPoint" />
          </mxGeometry>
        </mxCell>
        <mxCell id="yIu9YrGnw37LoQ0UbB89-70" value="&lt;span&gt;Subjects&lt;/span&gt;" style="rounded=1;whiteSpace=wrap;html=1;" vertex="1" parent="1">
          <mxGeometry x="480" y="280" width="80" height="40" as="geometry" />
        </mxCell>
        <mxCell id="yIu9YrGnw37LoQ0UbB89-72" value="" style="endArrow=none;html=1;rounded=0;entryX=0.5;entryY=1;entryDx=0;entryDy=0;exitX=0.5;exitY=0;exitDx=0;exitDy=0;" edge="1" parent="1" source="yIu9YrGnw37LoQ0UbB89-32" target="yIu9YrGnw37LoQ0UbB89-70">
          <mxGeometry width="50" height="50" relative="1" as="geometry">
            <mxPoint x="651.7157287525304" y="375.85786437626507" as="sourcePoint" />
            <mxPoint x="530" y="330" as="targetPoint" />
          </mxGeometry>
        </mxCell>
        <mxCell id="yIu9YrGnw37LoQ0UbB89-73" value="" style="edgeStyle=entityRelationEdgeStyle;fontSize=12;html=1;endArrow=ERoneToMany;startArrow=ERmandOne;rounded=0;exitX=1;exitY=0.5;exitDx=0;exitDy=0;entryX=0;entryY=0.5;entryDx=0;entryDy=0;" edge="1" parent="1" source="yIu9YrGnw37LoQ0UbB89-40" target="yIu9YrGnw37LoQ0UbB89-41">
          <mxGeometry width="100" height="100" relative="1" as="geometry">
            <mxPoint x="440" y="550" as="sourcePoint" />
            <mxPoint x="540" y="450" as="targetPoint" />
          </mxGeometry>
        </mxCell>
        <mxCell id="yIu9YrGnw37LoQ0UbB89-74" value="" style="edgeStyle=entityRelationEdgeStyle;fontSize=12;html=1;endArrow=ERoneToMany;startArrow=ERmandOne;rounded=0;exitX=0;exitY=0.5;exitDx=0;exitDy=0;entryX=1;entryY=0.5;entryDx=0;entryDy=0;" edge="1" parent="1" source="yIu9YrGnw37LoQ0UbB89-39" target="yIu9YrGnw37LoQ0UbB89-41">
          <mxGeometry width="100" height="100" relative="1" as="geometry">
            <mxPoint x="250" y="550" as="sourcePoint" />
            <mxPoint x="330" y="550" as="targetPoint" />
          </mxGeometry>
        </mxCell>
        <mxCell id="yIu9YrGnw37LoQ0UbB89-75" value="Department ID" style="ellipse;whiteSpace=wrap;html=1;align=center;fontStyle=4;" vertex="1" parent="1">
          <mxGeometry x="600" y="490" width="80" height="40" as="geometry" />
        </mxCell>
        <mxCell id="yIu9YrGnw37LoQ0UbB89-76" value="name" style="ellipse;whiteSpace=wrap;html=1;align=center;" vertex="1" parent="1">
          <mxGeometry x="600" y="550" width="80" height="40" as="geometry" />
        </mxCell>
        <mxCell id="yIu9YrGnw37LoQ0UbB89-77" value="" style="endArrow=none;html=1;rounded=0;entryX=0;entryY=1;entryDx=0;entryDy=0;exitX=1;exitY=0.5;exitDx=0;exitDy=0;" edge="1" parent="1" source="yIu9YrGnw37LoQ0UbB89-39" target="yIu9YrGnw37LoQ0UbB89-75">
          <mxGeometry width="50" height="50" relative="1" as="geometry">
            <mxPoint x="580" y="370" as="sourcePoint" />
            <mxPoint x="530" y="330" as="targetPoint" />
          </mxGeometry>
        </mxCell>
        <mxCell id="yIu9YrGnw37LoQ0UbB89-78" value="" style="endArrow=none;html=1;rounded=0;entryX=0;entryY=0;entryDx=0;entryDy=0;exitX=1;exitY=0.5;exitDx=0;exitDy=0;" edge="1" parent="1" source="yIu9YrGnw37LoQ0UbB89-39" target="yIu9YrGnw37LoQ0UbB89-76">
          <mxGeometry width="50" height="50" relative="1" as="geometry">
            <mxPoint x="570" y="550" as="sourcePoint" />
            <mxPoint x="621.7157287525379" y="534.1421356237311" as="targetPoint" />
          </mxGeometry>
        </mxCell>
        <mxCell id="yIu9YrGnw37LoQ0UbB89-80" value="&lt;span style=&quot;border-bottom: 1px dotted&quot;&gt;&lt;span&gt;Student&lt;/span&gt;&amp;nbsp;ID&lt;/span&gt;" style="ellipse;whiteSpace=wrap;html=1;align=center;" vertex="1" parent="1">
          <mxGeometry x="260" y="600" width="80" height="40" as="geometry" />
        </mxCell>
        <mxCell id="yIu9YrGnw37LoQ0UbB89-81" value="&lt;span style=&quot;border-bottom: 1px dotted&quot;&gt;&lt;span&gt;Department&lt;/span&gt;&amp;nbsp;ID&lt;/span&gt;" style="ellipse;whiteSpace=wrap;html=1;align=center;" vertex="1" parent="1">
          <mxGeometry x="380" y="600" width="80" height="40" as="geometry" />
        </mxCell>
        <mxCell id="yIu9YrGnw37LoQ0UbB89-82" value="" style="endArrow=none;html=1;rounded=0;entryX=0.5;entryY=1;entryDx=0;entryDy=0;exitX=0.5;exitY=0;exitDx=0;exitDy=0;" edge="1" parent="1" source="yIu9YrGnw37LoQ0UbB89-80" target="yIu9YrGnw37LoQ0UbB89-41">
          <mxGeometry width="50" height="50" relative="1" as="geometry">
            <mxPoint x="408.2842712474619" y="375.85786437626916" as="sourcePoint" />
            <mxPoint x="530" y="330" as="targetPoint" />
          </mxGeometry>
        </mxCell>
        <mxCell id="yIu9YrGnw37LoQ0UbB89-83" value="" style="endArrow=none;html=1;rounded=0;entryX=0.5;entryY=1;entryDx=0;entryDy=0;exitX=0.5;exitY=0;exitDx=0;exitDy=0;" edge="1" parent="1" source="yIu9YrGnw37LoQ0UbB89-81" target="yIu9YrGnw37LoQ0UbB89-41">
          <mxGeometry width="50" height="50" relative="1" as="geometry">
            <mxPoint x="310" y="610" as="sourcePoint" />
            <mxPoint x="370" y="570" as="targetPoint" />
          </mxGeometry>
        </mxCell>
      </root>
    </mxGraphModel>
  </diagram>
</mxfile>
